<svg width="61" height="60" viewBox="0 0 61 60" fill="none" xmlns="http://www.w3.org/2000/svg">
<g clip-path="url(#clip0_38_454)">
<path d="M0 52.2646C0.283289 51.541 0.84106 51.3076 1.57937 51.3296C2.43511 51.3546 3.29232 51.3355 4.29924 51.3355C2.05348 49.1866 0.895369 46.6825 1.026 43.6647C1.15664 40.6542 2.44245 38.2161 4.83646 36.4019C8.67921 33.4897 14.0015 33.911 17.4157 37.2723C20.4805 40.2916 21.8587 46.6663 16.965 51.3355H17.6534C21.1307 51.3355 24.6065 51.3355 28.0838 51.3355C28.3568 51.3355 28.6283 51.3267 28.8955 51.4118C29.4077 51.5762 29.76 52.0415 29.7409 52.5479C29.7204 53.0822 29.3182 53.5563 28.7722 53.6458C28.5241 53.6869 28.2658 53.6781 28.0133 53.6781C19.6922 53.6781 11.3727 53.6869 3.05159 53.6634C2.43658 53.662 2.26925 53.8352 2.33677 54.4076C2.38227 54.7937 2.33383 55.1885 2.35144 55.5789C2.40282 56.7429 3.24535 57.5899 4.40492 57.6515C4.57959 57.6603 4.75573 57.6574 4.93187 57.6574C20.2441 57.6574 35.5579 57.6574 50.8702 57.6574C51.0258 57.6574 51.1828 57.6544 51.3384 57.6574C51.5145 57.6603 51.607 57.6016 51.5145 57.4152C51.0125 56.4097 51.0771 55.3265 51.1094 54.2564C51.1226 53.8029 51.0037 53.6678 50.5326 53.6708C46.7236 53.6913 42.9146 53.6825 39.1071 53.6811C38.8928 53.6811 38.6741 53.6884 38.4642 53.6546C37.9005 53.5636 37.513 53.1233 37.4895 52.5743C37.4646 52.0033 37.7816 51.5601 38.3526 51.4133C38.5757 51.356 38.815 51.3414 39.0469 51.3414C43.305 51.3369 47.5632 51.3369 51.8198 51.3384C53.0499 51.3384 53.4403 51.7274 53.4418 52.9471C53.4418 53.7677 53.4344 54.5882 53.4433 55.4087C53.4579 56.7194 54.3489 57.6603 55.5613 57.6544C56.7723 57.6486 57.6574 56.7106 57.6588 55.3881C57.6647 49.2556 57.6618 43.1216 57.6618 36.989C57.6618 28.4933 57.6618 19.9961 57.6618 11.5004C57.6618 8.89645 56.2556 7.50055 53.6355 7.49908C52.1119 7.49908 50.5883 7.51376 49.0648 7.49028C48.6523 7.48441 48.5217 7.60623 48.5437 8.01576C48.6053 9.18414 48.5363 10.329 47.685 11.2582C46.6972 12.337 45.4789 12.7142 44.0786 12.3135C42.6504 11.9055 41.8079 10.9191 41.5921 9.44394C41.5187 8.94488 41.5172 8.43115 41.5246 7.92622C41.529 7.59743 41.4277 7.45798 41.093 7.49762C40.9389 7.51523 40.7804 7.50055 40.6248 7.50055C34.57 7.50055 28.5153 7.50789 22.4606 7.48734C21.9424 7.48587 21.7839 7.61504 21.8191 8.13318C21.8881 9.15772 21.8059 10.1632 21.1498 11.0321C20.2485 12.2269 18.7572 12.7392 17.3555 12.3238C15.8201 11.8688 14.9072 10.6549 14.8015 8.92287C14.7971 8.84507 14.7985 8.76728 14.7985 8.68802C14.7878 7.89637 14.3959 7.50055 13.6228 7.50055C12.4119 7.50055 11.2009 7.49028 9.98997 7.50349C7.82347 7.52404 6.34831 8.98745 6.32042 11.1437C6.30575 12.2563 6.3263 13.3704 6.31162 14.483C6.30868 14.778 6.38501 14.9248 6.70352 14.8866C6.85765 14.869 7.01617 14.8837 7.17176 14.8837C20.7652 14.8837 34.3602 14.8837 47.9536 14.8837C48.1885 14.8837 48.4248 14.8719 48.6552 14.9028C49.2864 14.9864 49.7003 15.4414 49.7077 16.0359C49.7165 16.6568 49.2937 17.1294 48.6362 17.2116C48.4248 17.2381 48.2075 17.2263 47.9918 17.2263C34.3396 17.2263 20.686 17.2307 7.03378 17.2131C6.44812 17.2131 6.29547 17.3437 6.29987 17.9397C6.32923 22.1186 6.31602 26.2989 6.31309 30.4792C6.31309 30.7302 6.30134 30.9886 6.2441 31.2322C6.10172 31.8384 5.6511 32.1628 5.05076 32.1232C4.47831 32.085 4.05558 31.6682 3.98659 31.0664C3.96898 30.9123 3.97192 30.7537 3.97192 30.5981C3.97192 24.153 3.96898 17.7078 3.97192 11.2626C3.97338 8.77168 5.0625 6.9193 7.28038 5.76706C8.0686 5.35754 8.92286 5.15791 9.81677 5.15791C11.2816 5.15791 12.748 5.13002 14.2114 5.17259C14.7296 5.18727 14.8352 5.01553 14.8059 4.55024C14.7765 4.08494 14.8029 3.6123 14.8558 3.14847C15.0642 1.29902 16.5951 -0.0484392 18.3976 -1.16066e-06C20.2456 0.0513725 21.7032 1.47662 21.8103 3.3525C21.8353 3.7811 21.8514 4.21411 21.8206 4.63977C21.7898 5.0581 21.9453 5.16232 22.349 5.15938C24.5948 5.14177 26.8405 5.15057 29.0877 5.15057C33.0332 5.15057 36.9787 5.1403 40.9242 5.16232C41.4233 5.16525 41.551 5.02287 41.5275 4.5429C41.4717 3.35984 41.5393 2.20173 42.3803 1.23443C43.3153 0.158523 44.7626 -0.256869 46.1497 0.196687C47.4883 0.634096 48.4351 1.83477 48.5217 3.23507C48.5525 3.72239 48.5642 4.21264 48.5422 4.69849C48.5261 5.06397 48.6582 5.16085 49.0104 5.15791C50.6515 5.14177 52.291 5.14764 53.932 5.15204C57.4298 5.16232 60 7.72072 60.0015 11.2141C60.0059 25.882 60.0044 40.5499 60.0015 55.2193C60.0015 57.7117 58.6907 59.3615 56.2879 59.9208C56.2336 59.934 56.1851 59.9721 56.1352 60H3.8677C3.147 59.7769 2.42484 59.5743 1.80101 59.1076C0.79409 58.3531 0.290628 57.3124 0 56.1323V52.2646H0ZM17.8575 44.0815C17.8766 40.0817 14.6268 36.807 10.6255 36.7953C6.63013 36.7835 3.36864 40.0259 3.34222 44.039C3.3158 48.0197 6.5905 51.3149 10.583 51.3252C14.5857 51.3355 17.8384 48.0975 17.8575 44.0815ZM19.4838 6.20594C19.4838 5.36634 19.4941 4.52675 19.4809 3.68716C19.4677 2.86665 19.0053 2.34557 18.3213 2.34704C17.6681 2.34704 17.1647 2.8505 17.1515 3.62845C17.125 5.36634 17.1236 7.10424 17.1515 8.84067C17.1647 9.66118 17.6681 10.1353 18.3756 10.1059C19.0508 10.0766 19.4662 9.59513 19.4794 8.78342C19.4926 7.92475 19.4823 7.06461 19.4823 6.20594H19.4838ZM46.2054 6.21621C46.2054 5.37662 46.2157 4.53703 46.2025 3.69743C46.1893 2.87252 45.7357 2.35291 45.0517 2.34704C44.3765 2.34117 43.8804 2.86224 43.8701 3.67688C43.8496 5.39423 43.8452 7.11305 43.8731 8.83039C43.8863 9.65237 44.3839 10.1309 45.0884 10.1059C45.7636 10.0824 46.1878 9.5966 46.201 8.79223C46.2157 7.93356 46.204 7.07342 46.204 6.21474L46.2054 6.21621Z" fill="#245BAA"/>
<path d="M33.0171 27.8783C33.0245 25.4417 35.0222 23.4411 37.4484 23.4367C39.8689 23.4322 41.8724 25.4285 41.8959 27.8665C41.9194 30.2987 39.863 32.3566 37.4294 32.336C34.9972 32.3155 33.0083 30.306 33.0156 27.8768L33.0171 27.8783ZM35.3612 27.912C35.373 29.0584 36.3094 29.9919 37.4499 29.9934C38.611 29.9963 39.5694 29.0246 39.5533 27.8621C39.5386 26.7187 38.5977 25.7837 37.4587 25.7808C36.2947 25.7778 35.3495 26.7392 35.3612 27.912Z" fill="#245BAA"/>
<path d="M41.8798 40.2681C41.692 42.803 39.6091 44.7009 37.218 44.5145C34.6185 44.3105 32.8572 42.2453 33.0465 39.6223C33.2109 37.3589 35.3877 35.4786 37.6613 35.6372C40.1507 35.8118 42.0545 37.9005 41.8798 40.2681ZM39.5489 39.9951C39.499 38.8223 38.5039 37.9108 37.3428 37.9739C36.1979 38.037 35.3231 39.0014 35.3627 40.1566C35.4024 41.3235 36.4019 42.2423 37.563 42.1778C38.7049 42.1146 39.5974 41.1341 39.5475 39.9951H39.5489Z" fill="#245BAA"/>
<path d="M11.1334 27.8093C11.1863 25.3742 13.2383 23.3838 15.6411 23.4381C18.0792 23.4939 20.0813 25.5444 20.0284 27.9355C19.9741 30.4014 17.8971 32.4109 15.484 32.3331C13.0328 32.2538 11.0791 30.2238 11.1334 27.8078V27.8093ZM15.5662 25.7822C14.4008 25.7881 13.457 26.7569 13.4761 27.9267C13.4952 29.0687 14.4448 29.9978 15.5868 29.9919C16.7229 29.9861 17.6726 29.0422 17.6843 27.9062C17.6961 26.751 16.7244 25.7763 15.5662 25.7822Z" fill="#245BAA"/>
<path d="M43.948 27.8856C43.9495 25.4608 45.9574 23.4484 48.3823 23.4396C50.8159 23.4308 52.8797 25.5033 52.8444 27.9208C52.8092 30.353 50.7866 32.3522 48.3749 32.3375C45.9486 32.3228 43.9451 30.309 43.948 27.8856ZM48.3926 25.7837C47.2506 25.7837 46.3053 26.7172 46.2921 27.8592C46.2789 29.029 47.2271 29.9934 48.3926 29.9934C49.5286 29.9934 50.4813 29.0555 50.5003 27.9179C50.5194 26.7642 49.5507 25.7837 48.3926 25.7837Z" fill="#245BAA"/>
<path d="M48.3631 35.6269C50.7718 35.6019 52.7959 37.5923 52.8444 40.0318C52.8913 42.4434 50.8305 44.5248 48.3939 44.5248C45.9735 44.5248 43.9582 42.5168 43.9479 40.0905C43.9376 37.6701 45.9339 35.6518 48.3631 35.6269ZM48.3866 42.1807C49.5227 42.1836 50.4782 41.2472 50.5003 40.1096C50.5223 38.9559 49.5565 37.9725 48.3969 37.9695C47.2549 37.9666 46.3082 38.8986 46.292 40.0406C46.2759 41.2105 47.2226 42.1763 48.3881 42.1807H48.3866Z" fill="#245BAA"/>
<path d="M30.9519 27.8636C30.9666 30.2943 28.9879 32.3052 26.5514 32.3375C24.1265 32.3683 22.0525 30.3119 22.0613 27.8827C22.0686 25.4666 24.0854 23.4484 26.5044 23.4381C28.9263 23.4278 30.9387 25.43 30.9534 27.8636H30.9519ZM28.6078 27.9003C28.6122 26.7231 27.6654 25.7734 26.4971 25.7822C25.3624 25.791 24.4128 26.7407 24.4039 27.8753C24.3937 29.0276 25.3742 30.0022 26.5308 29.9934C27.6757 29.9846 28.6019 29.0496 28.6063 27.9003H28.6078Z" fill="#245BAA"/>
<path d="M30.9519 40.0876C30.946 42.5197 28.9424 44.5248 26.5161 44.5263C24.103 44.5263 22.0862 42.5227 22.0613 40.0949C22.0349 37.6789 24.1118 35.6063 26.5381 35.6269C28.9703 35.6474 30.9577 37.6554 30.9519 40.0876ZM28.6078 40.1169C28.6239 38.9368 27.6933 37.9768 26.5264 37.971C25.3918 37.9651 24.4362 38.8957 24.4054 40.0362C24.3746 41.1826 25.3463 42.1748 26.5044 42.1821C27.6493 42.188 28.5931 41.2633 28.6078 40.1169Z" fill="#245BAA"/>
<path d="M55.2076 16.055C55.2061 16.6818 54.6718 17.2175 54.0524 17.2146C53.4389 17.2116 52.8914 16.6612 52.8943 16.0491C52.8958 15.437 53.4477 14.8881 54.0598 14.8895C54.6792 14.8895 55.2105 15.4282 55.2076 16.055Z" fill="#245BAA"/>
<path d="M33.0273 52.5097C33.0288 51.8771 33.5558 51.3443 34.1767 51.3472C34.7917 51.3501 35.3274 51.8947 35.3274 52.5171C35.3274 53.1424 34.7946 53.6737 34.1708 53.6722C33.5381 53.6708 33.0273 53.1512 33.0288 52.5097H33.0273Z" fill="#245BAA"/>
<path d="M15.1141 41.9987C15.0979 42.4258 14.9174 42.7194 14.662 42.9748C13.1883 44.4514 11.7205 45.9324 10.2351 47.3958C9.62004 48.0006 9.00356 47.9991 8.37974 47.4061C7.71628 46.775 7.06751 46.1262 6.43634 45.4627C5.89619 44.8962 5.87711 44.221 6.34387 43.741C6.81504 43.2566 7.48143 43.2728 8.07003 43.7836C8.11406 43.8217 8.15369 43.8657 8.19479 43.9068C8.55881 44.2577 8.91109 44.8712 9.29125 44.8888C9.72572 44.9079 10.0545 44.2577 10.4244 43.8951C11.2875 43.0496 12.1271 42.1792 12.9946 41.3382C13.6653 40.685 14.5079 40.7452 14.935 41.4439C15.051 41.6317 15.1023 41.8358 15.1141 42.0002V41.9987Z" fill="#245BAA"/>
</g>
<defs>
<clipPath id="clip0_38_454">
<rect width="60.0059" height="60" fill="white"/>
</clipPath>
</defs>
</svg>
