<svg width="40" height="40" viewBox="0 0 40 40" fill="none" xmlns="http://www.w3.org/2000/svg">
<circle cx="20" cy="20" r="19.5" stroke="#828282"/>
<path d="M24.9993 10.0042L22.4058 10C19.492 10 17.609 11.9319 17.609 14.922V17.1914H15.0013C14.776 17.1914 14.5935 17.3741 14.5935 17.5994V20.8875C14.5935 21.1128 14.7762 21.2953 15.0013 21.2953H17.609V29.5922C17.609 29.8175 17.7915 30 18.0168 30H21.4191C21.6445 30 21.8269 29.8173 21.8269 29.5922V21.2953H24.876C25.1013 21.2953 25.2838 21.1128 25.2838 20.8875L25.285 17.5994C25.285 17.4912 25.2419 17.3876 25.1656 17.311C25.0892 17.2345 24.9852 17.1914 24.877 17.1914H21.8269V15.2676C21.8269 14.343 22.0473 13.8736 23.2518 13.8736L24.9989 13.873C25.2241 13.873 25.4065 13.6903 25.4065 13.4651V10.412C25.4065 10.1871 25.2243 10.0046 24.9993 10.0042Z" fill="#828282"/>
</svg>
