<svg width="60" height="60" viewBox="0 0 60 60" fill="none" xmlns="http://www.w3.org/2000/svg">
<g clip-path="url(#clip0_38_446)">
<path d="M25.3125 0C26.7703 0.321875 27.8094 1.25938 28.8219 2.2875C31.7813 5.29063 34.7891 8.24688 37.7547 11.2438C40.1688 13.6844 39.4469 17.6094 36.3625 18.9328C35.5781 19.2688 34.75 19.4344 33.9047 19.2578C33.4453 19.1625 33.1375 19.2734 32.8313 19.6141C32.5469 19.9297 32.1938 20.1828 31.825 20.5016C33.2219 21.3344 33.9328 22.4188 33.875 23.9375C33.8469 24.6641 33.6047 25.3141 33.1547 25.8766C32.9688 26.1078 32.9766 26.2313 33.2078 26.4328C39.2734 31.7125 45.3328 37 51.3922 42.2859C53.45 44.0813 55.5141 45.8703 57.5641 47.6766C58.8203 48.7828 59.625 50.1563 59.9 51.8234C59.9188 51.9344 59.9672 52.0406 60.0016 52.15V53.7906C59.9625 53.9375 59.9172 54.0828 59.8844 54.2313C59.3172 56.8375 57.7828 58.6234 55.3031 59.5844C54.8172 59.7734 54.2953 59.8641 53.7891 60.0016H52.0313C51.9828 59.9719 51.9375 59.9219 51.8875 59.9141C50.0641 59.6422 48.6172 58.7281 47.4281 57.3469C45.7594 55.4094 44.0719 53.4875 42.3922 51.5594C37.0859 45.4625 31.7797 39.3672 26.4813 33.2656C26.2609 33.0125 26.1266 32.9422 25.8375 33.1797C25.2813 33.6391 24.6188 33.8594 23.8922 33.8797C22.3938 33.9219 21.3313 33.2078 20.4891 31.8109C20.1891 32.1703 19.9609 32.5203 19.6578 32.7875C19.2828 33.1188 19.1875 33.4516 19.2594 33.9594C19.4719 35.4641 18.9953 36.7797 17.9188 37.8469C16.0453 39.7063 13.15 39.6516 11.2031 37.7172C8.23906 34.7719 5.30625 31.7969 2.32969 28.8641C1.29063 27.8359 0.326563 26.7922 0 25.3125V23.9063C0.0265625 23.8547 0.0625 23.8047 0.078125 23.75C0.859375 20.9109 2.77187 19.6125 5.64063 20C5.90938 20.0359 6.03594 19.9156 6.1875 19.7656C10.7141 15.2391 15.2391 10.7109 19.7703 6.18906C19.9688 5.99063 20.0266 5.81563 19.975 5.525C19.6141 3.47813 20.5734 1.52344 22.375 0.55C22.8594 0.2875 23.3953 0.176563 23.9078 0H25.3141L25.3125 0ZM31.1453 17.9078C31.0453 17.8016 30.9438 17.6859 30.8344 17.5766C27.7719 14.5109 24.7047 11.4516 21.6531 8.375C21.3516 8.07031 21.1938 8.04844 20.8766 8.36563C16.7203 12.5438 12.5516 16.7109 8.37344 20.8688C8.06875 21.1719 8.04844 21.3297 8.36563 21.6438C11.4422 24.6938 14.5047 27.7578 17.5578 30.8344C17.8594 31.1391 18.0125 31.1625 18.3281 30.8422C20.325 28.8109 22.3469 26.8031 24.3625 24.7875C26.5156 22.6344 28.6703 20.4844 30.8203 18.3281C30.9391 18.2094 31.1031 18.1188 31.1453 17.9078ZM45.7719 40.4438C45.65 40.3563 45.5344 40.2875 45.4344 40.2C40.8172 36.175 36.1984 32.1484 31.5875 28.1156C31.3563 27.9141 31.2156 27.8625 30.9734 28.1109C30.0359 29.0766 29.0828 30.0281 28.1172 30.9672C27.8781 31.2 27.8875 31.3406 28.1031 31.5813C29 32.5844 29.875 33.6078 30.7594 34.6234C33.8844 38.2141 37.0156 41.8 40.1281 45.4016C40.4125 45.7297 40.5547 45.7016 40.8375 45.4141C42.3547 43.8688 43.8938 42.3453 45.425 40.8125C45.5203 40.7172 45.6094 40.6156 45.7688 40.4438H45.7719ZM57.65 52.9828C57.6531 51.5984 57.0875 50.3734 55.9703 49.3922C54.4766 48.0797 52.9672 46.7828 51.4828 45.4594C51.1781 45.1875 51.0094 45.1469 50.6922 45.4703C49.0578 47.1453 47.3922 48.7891 45.7375 50.4453C45.3104 50.8724 45.2948 51.3151 45.6906 51.7734C46.9578 53.2297 48.2031 54.7063 49.5031 56.1328C50.8422 57.6031 52.8297 58.0359 54.6391 57.3266C56.4375 56.6219 57.6469 54.8781 57.6516 52.9828H57.65ZM22.2422 4.675C22.2266 5.41094 22.55 5.98125 23.0578 6.48594C25.6563 9.075 28.2469 11.6703 30.8406 14.2641C31.5438 14.9672 32.2281 15.6922 32.9625 16.3641C33.6703 17.0109 34.5141 17.1609 35.4094 16.7859C36.3016 16.4141 36.7828 15.7172 36.8484 14.7578C36.9031 13.9625 36.55 13.3406 35.9969 12.7891C32.8031 9.60938 29.6203 6.41875 26.4328 3.23281C26.3094 3.10938 26.1859 2.98125 26.0469 2.875C25.2844 2.2875 24.4484 2.16406 23.5781 2.57969C22.7094 2.99375 22.2719 3.7125 22.2438 4.67656L22.2422 4.675ZM4.70156 22.2422C3.71406 22.2641 2.97969 22.7031 2.56875 23.6063C2.13594 24.5578 2.2875 25.4641 3.01563 26.1984C6.32656 29.5359 9.65 32.8625 12.9859 36.1734C13.9359 37.1172 15.3875 37.0797 16.2984 36.1594C17.2141 35.2328 17.2234 33.8125 16.2656 32.8484C12.9656 29.5281 9.65 26.2219 6.33594 22.9141C5.88906 22.4688 5.34375 22.2344 4.70156 22.2422ZM22.5844 30.2172C22.6 30.8813 22.8297 31.2438 23.2875 31.4375C23.8203 31.6641 24.275 31.5047 24.6688 31.1094C26.8078 28.9688 28.9516 26.8328 31.0859 24.6859C31.6531 24.1156 31.6844 23.4078 31.1969 22.9234C30.7125 22.4406 29.9922 22.4719 29.4297 23.0328C27.2859 25.1688 25.15 27.3125 23.0078 29.4516C22.7484 29.7109 22.5719 30.0016 22.5828 30.2172H22.5844ZM43.5594 49.2766C43.6859 49.1641 43.8047 49.0656 43.9125 48.9578C45.2625 47.6094 46.6188 46.2656 47.9578 44.9063C48.3906 44.4672 49.2141 44.0391 49.1344 43.5672C49.0484 43.0703 48.2734 42.6906 47.8 42.2609C47.7859 42.2484 47.7703 42.2359 47.7563 42.2219C47.6078 42.0531 47.4828 42.075 47.325 42.2328C45.6359 43.9313 43.9406 45.6234 42.2453 47.3156C42.1109 47.45 42.0109 47.5594 42.1828 47.75C42.5891 48.1969 42.9781 48.6578 43.375 49.1125C43.4234 49.1688 43.4859 49.2125 43.5594 49.2766Z" fill="#245BAA"/>
<path d="M0 56.8359C0.0328125 56.7672 0.0828125 56.7016 0.0953125 56.6297C0.410938 54.9219 1.32188 53.6156 2.775 52.6828C2.99219 52.5437 3.14063 52.4719 2.95156 52.1625C1.23438 49.3547 3.34375 45.8766 6.71719 45.9156C13.1406 45.9906 19.5656 46.0078 25.9891 45.9094C29.5234 45.8547 31.5672 49.4266 29.8563 52.1812C29.7219 52.3969 29.7375 52.4969 29.9578 52.6344C32.2547 54.0703 32.9781 56.2344 32.8156 58.8156C32.7797 59.4 32.4219 59.7141 31.9922 60H0.820313C0.48125 59.7922 0.204688 59.5219 0 59.1797V56.8359ZM16.4063 57.6562C20.8984 57.6562 25.3906 57.6437 29.8828 57.6703C30.475 57.6734 30.5109 57.4797 30.4063 56.9969C30.0391 55.3094 28.6766 54.1453 26.9516 54.1437C19.9203 54.1344 12.8891 54.1344 5.85781 54.1437C4.13438 54.1453 2.76719 55.3141 2.40469 56.9984C2.3 57.4812 2.34219 57.6734 2.93125 57.6687C7.42344 57.6422 11.9156 57.6547 16.4078 57.6547L16.4063 57.6562ZM16.4 48.2812C13.1609 48.2812 9.92344 48.2797 6.68438 48.2812C5.49219 48.2812 4.7 48.9812 4.69063 50.0266C4.68125 51.0656 5.48594 51.7937 6.66563 51.7937C13.1422 51.7969 19.6203 51.7969 26.0969 51.7937C27.325 51.7937 28.1281 51.0797 28.1219 50.0156C28.1141 48.9781 27.3125 48.2812 26.1156 48.2812C22.8766 48.2797 19.6391 48.2812 16.4 48.2812Z" fill="#245BAA"/>
<path d="M22.414 13.1094C22.4218 13.3547 22.2562 13.6344 22.014 13.8781C20.4125 15.4797 18.8172 17.0875 17.2078 18.6812C16.6437 19.2406 15.9203 19.25 15.4437 18.7453C14.9781 18.2531 15.0062 17.5812 15.5562 17.0265C17.15 15.4172 18.7578 13.8203 20.3594 12.2187C20.7594 11.8187 21.2234 11.6891 21.7468 11.9234C22.2 12.1266 22.4172 12.5 22.4156 13.1094H22.414Z" fill="#245BAA"/>
<path d="M12.9469 22.4141C12.3 22.4016 11.8109 21.8969 11.8172 21.2469C11.8234 20.6078 12.3375 20.0938 12.9719 20.0938C13.6234 20.0938 14.1719 20.6578 14.1453 21.3C14.1187 21.9359 13.5922 22.4266 12.9484 22.4141H12.9469Z" fill="#245BAA"/>
</g>
<defs>
<clipPath id="clip0_38_446">
<rect width="60" height="60" fill="white"/>
</clipPath>
</defs>
</svg>
