<svg width="40" height="40" viewBox="0 0 40 40" fill="none" xmlns="http://www.w3.org/2000/svg">
<circle cx="20" cy="20" r="19.5" stroke="#828282"/>
<path d="M12.8891 9.01562C11.5142 9.01562 10.6152 9.91845 10.6152 11.1051C10.6152 12.2655 11.4874 13.1941 12.8363 13.1941H12.8624C14.2642 13.1941 15.1366 12.2655 15.1366 11.1051C15.1104 9.91845 14.2642 9.01562 12.8891 9.01562Z" fill="#828282"/>
<path d="M10.8528 14.845H14.8722V26.9375H10.8528V14.845Z" fill="#828282"/>
<path d="M24.7379 14.5613C22.5696 14.5613 21.1156 16.5988 21.1156 16.5988V14.8451H17.0961V26.9376H21.1154V20.1847C21.1154 19.8232 21.1416 19.4622 21.2478 19.2037C21.5384 18.4818 22.1996 17.7339 23.3101 17.7339C24.7645 17.7339 25.3462 18.8429 25.3462 20.4685V26.9376H29.3653V20.004C29.3653 16.2897 27.3822 14.5613 24.7379 14.5613Z" fill="#828282"/>
</svg>
