<svg width="82" height="60" viewBox="0 0 82 60" fill="none" xmlns="http://www.w3.org/2000/svg">
<g clip-path="url(#clip0_38_469)">
<path d="M0 49.1688C0.637363 45.9561 3.48851 45.1609 5.98002 43.8582C4.27772 43.055 2.84116 42.1199 1.77023 40.7033C1.3986 40.2118 1.15884 39.7123 1.41658 39.0849C2.1998 37.1808 2.27173 35.1569 2.3956 33.1429C2.51349 31.2088 2.42957 29.2607 2.86913 27.3527C4.47353 20.3696 12.1359 17.035 17.994 20.8112C20.9331 22.7053 22.4476 25.5185 22.8072 28.959C23.0609 31.3906 22.9291 33.8482 23.2907 36.2737C23.4226 37.1668 23.5544 38.0619 23.9341 38.8931C24.2498 39.5804 24.0779 40.1638 23.6264 40.7373C22.5495 42.1079 21.1668 43.0649 19.5365 43.8062C20.1119 44.3277 20.5614 44.4216 21.2967 44.058C23.4166 43.013 25.7063 42.3776 27.9121 41.5385C28.6613 41.2528 29.4905 41.1289 29.7323 40.1479C29.7942 39.8981 30.1039 39.7103 30.3037 39.4965C30.7393 39.031 31.1848 38.5734 31.6164 38.1039C32.1618 37.5065 32.1479 33.8641 31.5864 33.3387C28.4675 30.4196 26.9171 26.7932 26.8851 22.5574C26.8731 20.8352 26.4995 19.2348 26.1139 17.5764C25.2507 13.8581 25.025 10.0659 26.7672 6.5015C28.6973 2.55145 31.976 0.25974 36.3497 0.113886C42.4835 -0.091908 48.6294 0.0419581 54.7712 0.0479521C55.6424 0.0479521 56.1239 0.513487 56.1239 1.38861C56.1299 5.85415 56.1179 10.3197 56.0819 14.7852C56.0739 15.9321 55.9281 17.1009 55.4625 18.1379C54.8132 19.5844 54.8492 21.0709 54.8531 22.5814C54.8591 24.983 54.3776 27.2747 53.2607 29.4186C52.4915 30.8951 51.5065 32.2118 50.2617 33.3107C49.8581 33.6683 49.6743 34.03 49.7403 34.5435C49.7463 34.5954 49.7483 34.6514 49.7403 34.7033C49.4106 36.7972 49.9381 38.5575 51.7203 39.8382C51.8042 39.8981 51.9121 39.982 51.9321 40.0719C52.1898 41.2308 53.2348 41.3187 54.0859 41.6424C55.5245 42.1898 56.983 42.6833 58.4196 43.2368C58.993 43.4586 59.5285 43.5225 60.1079 43.2847C60.4496 43.1449 60.8192 43.0729 61.1768 42.971C62.7353 42.5235 62.7273 42.5235 62.6753 40.9151C62.6653 40.5954 62.5754 40.3776 62.3237 40.1698C59.9041 38.1818 58.7473 35.5984 58.8452 32.4835C58.8771 31.4366 58.6014 30.5315 58.1698 29.5964C56.1459 25.2048 59.4146 19.6763 64.2398 19.3367C68.2997 19.051 72.3696 19.2687 76.4356 19.2308C77.2767 19.2228 77.8082 19.6384 77.8142 20.3656C77.8342 22.8092 77.962 25.2548 77.7403 27.6943C77.6743 28.4156 77.4925 29.1249 77.1309 29.7423C76.6214 30.6094 76.5315 31.5245 76.5634 32.4935C76.6713 35.6384 75.6044 38.2657 73.0829 40.2378C72.3996 40.7712 72.7932 41.5225 72.7672 42.1718C72.7473 42.6833 73.2747 42.7013 73.6484 42.8092C75.0749 43.2228 76.5095 43.6124 77.9301 44.052C80.3077 44.7852 81.6623 46.6074 81.6743 49.0949C81.6903 52.2578 81.6843 55.4226 81.6743 58.5854C81.6703 59.4586 81.1888 59.998 80.4815 59.998C79.7742 59.998 79.3167 59.4566 79.2867 58.5834C79.2807 58.3976 79.2867 58.2118 79.2867 58.026C79.2867 55.2088 79.2867 52.3896 79.2867 49.5724C79.2867 47.5505 78.6813 46.7433 76.7433 46.1858C75.2907 45.7662 73.8302 45.3726 72.3836 44.9271C72.022 44.8152 71.7742 44.8392 71.5485 45.1329C71.5005 45.1948 71.4346 45.2448 71.3806 45.3027C70.5634 46.1379 69.4406 46.8432 69.017 47.8442C68.6054 48.8172 68.9031 50.0919 68.9011 51.2348C68.8971 53.5744 68.9011 55.9141 68.8951 58.2538C68.8951 58.5435 68.8791 58.8412 68.8072 59.1189C68.6514 59.7103 68.2158 60.02 67.6264 59.98C67.001 59.9401 66.5854 59.5645 66.5315 58.9171C66.4855 58.3896 66.5075 57.8542 66.5075 57.3227C66.5075 54.4775 66.4875 51.6324 66.5195 48.7892C66.5275 48.1059 66.3916 47.5744 65.8442 47.1209C65.3147 46.6813 64.8571 46.1539 64.3696 45.6643C63.7316 45.0263 62.9757 44.8871 62.1019 45.2468C62.3596 45.6124 62.6254 45.9561 62.8551 46.3237C63.5025 47.3666 63.7902 48.5215 63.7982 49.7363C63.8162 52.6614 63.8022 55.5844 63.8062 58.5095C63.8062 59.0729 63.6823 59.5665 63.1369 59.8542C62.7193 60.0739 62.3137 60.03 61.9321 59.7683C61.4545 59.4406 61.4086 58.9471 61.4106 58.4236C61.4166 55.6324 61.4166 52.8412 61.4106 50.05C61.4086 47.8022 60.5315 46.5515 58.4216 45.7762C56.1798 44.9531 53.9321 44.1479 51.6983 43.3027C51.2148 43.1209 50.967 43.1928 50.6833 43.6424C49.8202 45.013 48.9071 46.3537 47.996 47.6943C46.8811 49.3347 45.2288 49.4985 43.8242 48.1059C43.2987 47.5864 42.8172 47.023 42.2577 46.4176C41.996 46.8152 42.0679 47.1089 42.0679 47.3806C42.0619 50.969 42.0659 54.5595 42.0639 58.1479C42.0639 59.4126 41.6444 60.028 40.8172 59.996C40.026 59.9641 39.6723 59.3966 39.6723 58.1459C39.6723 54.5834 39.6723 51.021 39.6723 47.4586C39.6723 47.1728 39.6723 46.8891 39.6723 46.4735C38.9471 46.9551 38.4935 47.5325 37.978 48.036C36.4476 49.5285 34.8452 49.3726 33.6464 47.5924C32.7572 46.2697 31.8581 44.9531 31.003 43.6084C30.7353 43.1888 30.4995 43.1249 30.044 43.2947C27.7343 44.1618 25.4066 44.981 23.0909 45.8402C21.2468 46.5235 20.3097 47.8701 20.2977 49.8642C20.2817 52.6294 20.2937 55.3946 20.2917 58.1579C20.2917 58.4496 20.3037 58.7473 20.2537 59.033C20.1538 59.6004 19.7642 59.9241 19.2168 59.982C18.6593 60.042 18.2218 59.7703 18.032 59.2368C17.9281 58.9451 17.9081 58.6114 17.9061 58.2977C17.8981 55.5065 17.8981 52.7153 17.9021 49.9241C17.9021 48.8492 18.0919 47.8122 18.5594 46.8312C18.6613 46.6174 19.0649 46.3177 18.5714 46.1359C18.1578 45.984 17.8042 45.3567 17.2448 45.9101C16.7932 46.3577 16.3317 46.8032 15.8302 47.1968C13.9321 48.6853 11.4625 48.6733 9.57642 47.1908C9.45055 47.0929 9.33067 46.989 9.2028 46.8931C8.6993 46.5155 8.37163 45.7263 7.76224 45.7363C7.18481 45.7463 6.61539 46.2318 6.04396 46.5135C5.42458 46.8192 4.81519 47.1449 4.19181 47.4386C2.95305 48.022 2.37163 48.975 2.38561 50.3537C2.41359 53.0909 2.4036 55.8302 2.38761 58.5675C2.38162 59.6504 1.61439 60.2418 0.751249 59.9021C0.401598 59.7643 0.263736 59.4346 0 59.2228V49.1728L0 49.1688ZM53.7423 9.26474C53.7423 6.90709 53.7323 4.96703 53.7502 3.02498C53.7542 2.59141 53.6464 2.41958 53.1768 2.42158C47.6484 2.44156 42.1179 2.37762 36.5894 2.46953C32.9291 2.52947 29.6504 4.96703 28.5435 8.46554C27.5325 11.6623 27.6843 14.9231 28.7632 18.0959C29.0689 18.995 29.2787 19.8581 29.2567 20.8052C29.2068 22.8312 29.2547 24.8552 30.008 26.7752C31.6823 31.041 34.6993 33.8202 39.2867 34.4396C44.1279 35.0949 47.964 33.1928 50.6773 29.1309C52.1838 26.8751 52.5554 24.3157 52.4635 21.6603C52.4176 20.3277 52.4216 19.015 53.0829 17.7802C53.3147 17.3487 53.3726 16.8192 53.4725 16.3257C53.974 13.8502 53.6344 11.3407 53.7443 9.26674L53.7423 9.26474ZM70.042 21.6124C68.5275 21.6124 67.013 21.6284 65.4985 21.6104C60.9311 21.5564 58.6314 26.1838 60.7193 29.4026C61.1369 30.044 61.2527 30.7672 61.2308 31.5345C61.1948 32.7553 61.1568 33.99 61.6044 35.1569C62.6114 37.7902 64.4595 39.3746 67.3187 39.6763C69.5964 39.9161 72.1199 38.5075 73.3367 36.3596C74.1778 34.8771 74.2238 33.2687 74.1658 31.6424C74.1359 30.7932 74.2897 30.022 74.7093 29.2787C75.1988 28.4096 75.4346 27.4546 75.4466 26.4575C75.4625 25.049 75.4326 23.6404 75.4625 22.2318C75.4725 21.7363 75.3067 21.5944 74.8252 21.6024C73.2308 21.6284 71.6364 21.6124 70.042 21.6124ZM20.5754 31.8641C20.5155 29.5185 20.3896 27.4166 19.2527 25.5205C17.7722 23.051 15.5964 21.6583 12.7213 21.6544C9.85015 21.6524 7.66633 23.029 6.18382 25.5025C5.17882 27.1788 4.92707 29.027 4.89311 30.9331C4.88312 31.5085 4.6973 32.0779 5.58641 32.2098C5.97602 32.2677 6.16983 32.7193 6.21778 33.1449C6.25774 33.4885 6.2977 33.8302 6.33966 34.1738C6.65934 36.8112 8.97902 39.4605 12.4376 39.6883C15.1349 39.8661 17.97 37.9561 18.8591 35.2667C19.1069 34.5175 19.031 33.9081 18.5854 33.2627C17.0849 31.0849 14.9051 30.0879 12.4216 29.5185C11.2108 29.2408 10.2498 29.3886 9.52847 30.4695C9.38262 30.6873 9.16883 30.8611 8.97702 31.043C8.38961 31.6024 7.69431 31.6663 7.2008 31.2148C6.68731 30.7453 6.70529 29.996 7.27672 29.3766C7.87213 28.7333 8.4995 28.1199 9.09491 27.4765C9.48851 27.053 9.94805 26.9031 10.5195 26.9331C14.4875 27.1409 17.9321 28.4256 20.5774 31.8641H20.5754ZM47.3467 35.5405C47.2348 35.5205 47.1768 35.4925 47.1349 35.5085C46.961 35.5724 46.7892 35.6444 46.6214 35.7203C44.3197 36.7593 41.9101 37.1389 39.4006 36.8851C37.8821 36.7313 36.4336 36.3237 35.0509 35.6743C34.8611 35.5844 34.6494 35.3187 34.4156 35.5545C34.1578 35.8142 34.4456 37.6224 34.7712 37.8462C36.6753 39.1549 38.5894 40.4496 40.4855 41.7662C40.7832 41.972 40.981 41.9321 41.2567 41.7403C43.1349 40.4396 45.021 39.1549 46.9091 37.8701C47.1588 37.7003 47.3706 37.5385 47.3546 37.1828C47.3307 36.6334 47.3487 36.0799 47.3487 35.5385L47.3467 35.5405ZM42.7033 43.6464C43.6064 44.5375 44.4815 45.3487 45.2887 46.2218C45.7263 46.6933 45.9081 46.5435 46.1958 46.0939C47.1129 44.6693 48.0679 43.2707 49.007 41.8621C49.5065 41.1129 49.2867 40.3037 48.4915 39.9121C48.3117 39.8242 48.1878 39.8921 48.0579 39.98C46.2917 41.1868 44.5255 42.3976 42.7013 43.6464H42.7033ZM38.999 43.6424C37.1688 42.3896 35.4046 41.1788 33.6364 39.976C33.1349 39.6344 32.989 40.1698 32.7812 40.3936C32.5375 40.6554 31.988 40.8292 32.3836 41.4066C33.4905 43.023 34.5674 44.6594 35.6503 46.2917C35.8262 46.5575 35.958 46.6753 36.2438 46.3836C37.1309 45.4765 38.042 44.5934 39.001 43.6424H38.999ZM12.7592 45.9121C13.982 45.9421 14.7253 45.023 15.5345 44.2218C15.6444 44.1119 15.5724 43.98 15.5265 43.8522C15.3447 43.3427 15.2947 42.8112 15.3427 42.2797C15.3906 41.7563 15.1528 41.7243 14.7413 41.8322C13.7003 42.1059 12.6434 42.1339 11.5804 42C11.1089 41.9401 10.4975 41.6344 10.2078 41.8282C9.82018 42.0859 10.0999 42.7573 10.0559 43.2468C10.026 43.5844 9.65834 43.9481 9.91808 44.2278C10.6753 45.039 11.4206 45.9181 12.7592 45.9121ZM70.3596 42.4795C70.3377 41.6983 70.3357 41.6883 69.6104 41.8562C68.3816 42.1399 67.1528 42.1638 65.9221 41.8841C65.0549 41.6883 64.9431 41.7842 64.987 42.6713C64.999 42.9171 65.1389 43.055 65.2867 43.2028C65.958 43.8781 66.6434 44.5395 67.3007 45.2288C67.5784 45.5205 67.7662 45.5585 68.0619 45.2448C68.7133 44.5515 69.3946 43.8861 70.0779 43.2228C70.3057 43.001 70.4356 42.7712 70.3596 42.4815V42.4795ZM4.55345 36.7593C4.32967 37.6344 4.15984 38.4096 3.92607 39.1628C3.82218 39.4965 3.98202 39.6604 4.16983 39.8482C5.05095 40.7253 6.11588 41.3107 7.25475 41.7802C7.58242 41.9161 7.65435 41.8062 7.67632 41.4805C7.71828 40.8631 7.6004 40.3976 7.04096 39.99C5.93606 39.1828 5.21079 38.034 4.55345 36.7593ZM20.8591 36.7812C20.1798 38.0899 19.4506 39.2568 18.3097 40.058C17.7582 40.4456 17.6943 40.9111 17.7243 41.4905C17.7423 41.8422 17.8761 41.9021 18.1678 41.7822C19.3227 41.3027 20.4096 40.7153 21.2927 39.8022C21.4406 39.6484 21.5884 39.5005 21.5205 39.2528C21.3067 38.4695 21.1009 37.6843 20.8611 36.7852L20.8591 36.7812Z" fill="#245BAA"/>
<path d="M74.1758 54.9071C74.1758 53.7143 74.1638 52.5215 74.1798 51.3287C74.1918 50.4695 74.6713 49.9461 75.3886 49.9601C76.0759 49.974 76.5534 50.4755 76.5594 51.2967C76.5774 53.7363 76.5774 56.1758 76.5594 58.6154C76.5534 59.4646 76.0359 60.014 75.3386 59.998C74.6393 59.982 74.1838 59.4386 74.1758 58.5675C74.1638 57.3487 74.1718 56.1279 74.1738 54.9091L74.1758 54.9071Z" fill="#245BAA"/>
<path d="M7.50253 55.6823C7.50253 56.6633 7.51452 57.6464 7.49853 58.6274C7.48455 59.4446 7.029 59.968 6.35168 59.994C5.65438 60.022 5.12491 59.4705 5.11691 58.6274C5.09693 56.7173 5.09693 54.8052 5.11691 52.8951C5.12491 52.034 5.62441 51.5245 6.35368 51.5465C7.04698 51.5684 7.48455 52.0639 7.49853 52.8951C7.51452 53.8242 7.50253 54.7533 7.50253 55.6823Z" fill="#245BAA"/>
<path d="M53.7442 56.2618C53.7442 55.4386 53.7263 54.6134 53.7502 53.7902C53.7722 53.025 54.2337 52.5335 54.8951 52.5175C55.5604 52.5015 56.0959 52.965 56.1139 53.7263C56.1538 55.4006 56.1518 57.0769 56.1159 58.7493C56.0999 59.4945 55.5544 60 54.9171 59.996C54.2417 59.992 53.7662 59.4646 53.7462 58.6534C53.7283 57.8562 53.7422 57.059 53.7422 56.2598L53.7442 56.2618Z" fill="#245BAA"/>
<path d="M27.96 56.2518C27.96 57.0749 27.982 57.9001 27.952 58.7233C27.9261 59.4845 27.4445 59.984 26.7992 59.996C26.1698 60.006 25.6144 59.5065 25.5964 58.7613C25.5564 57.0889 25.5544 55.4126 25.5964 53.7383C25.6164 52.967 26.1419 52.5075 26.8012 52.5175C27.4685 52.5275 27.9261 53.003 27.954 53.7802C27.982 54.6034 27.96 55.4286 27.96 56.2518Z" fill="#245BAA"/>
<path d="M38.929 10.9031C42.0279 11.007 45.3626 11.2128 48.4135 12.8372C49.2387 13.2767 50.0059 13.8042 50.6433 14.4875C51.0988 14.977 51.1348 15.5604 50.6933 16.0719C50.2517 16.5814 49.6303 16.6893 49.1288 16.2478C46.0019 13.4945 42.1678 13.3726 38.3276 13.3287C36.7912 13.3107 35.2547 13.4745 33.7242 13.6683C33.2067 13.7343 33.0649 13.9461 33.0849 14.4296C33.1148 15.1189 33.1148 15.8102 33.0789 16.4995C33.0389 17.2967 32.6013 17.7443 31.924 17.7582C31.2427 17.7722 30.7592 17.3387 30.7232 16.5494C30.6793 15.5964 30.6733 14.6354 30.7372 13.6843C30.8211 12.4196 31.7022 11.5444 32.963 11.3646C34.8571 11.0949 36.7632 10.957 38.929 10.9011V10.9031Z" fill="#245BAA"/>
<path d="M65.2308 25.6903C67.4566 25.8222 69.6664 26.042 71.7563 26.9091C72.3497 27.1548 72.7513 27.5425 72.6994 28.2218C72.6414 28.991 71.9062 29.4985 71.1249 29.1948C68.8592 28.3137 66.4896 28.1558 64.106 28.024C63.1329 27.97 62.6574 27.5245 62.6834 26.7812C62.7114 26.012 63.2628 25.6144 64.2758 25.6424C64.5935 25.6503 64.9112 25.6743 65.2288 25.6923L65.2308 25.6903Z" fill="#245BAA"/>
</g>
<defs>
<clipPath id="clip0_38_469">
<rect width="81.6843" height="60" fill="white"/>
</clipPath>
</defs>
</svg>
