<svg width="17" height="17" viewBox="0 0 17 17" fill="none" xmlns="http://www.w3.org/2000/svg">
<g clip-path="url(#clip0_38_419)">
<path d="M7.03948 9.96046C5.41686 8.33784 5.05048 6.71522 4.96783 6.06511C4.94473 5.88536 5.00659 5.70509 5.13519 5.57739L6.44829 4.26487C6.64145 4.07183 6.67573 3.77098 6.53095 3.53944L4.44024 0.293026C4.28007 0.0366338 3.95118 -0.0559009 3.68081 0.079354L0.324484 1.66006C0.105846 1.76772 -0.0227537 2.00002 0.00207025 2.24246C0.177932 3.91315 0.906294 8.02011 4.94233 12.0564C8.97836 16.0928 13.0847 16.8208 14.7563 16.9967C14.9988 17.0215 15.231 16.8929 15.3387 16.6743L16.9194 13.318C17.0542 13.0482 16.9622 12.7202 16.7069 12.5597L13.4605 10.4696C13.2291 10.3246 12.9283 10.3587 12.7351 10.5516L11.4226 11.8647C11.2949 11.9933 11.1146 12.0552 10.9348 12.0321C10.2847 11.9495 8.6621 11.5831 7.03948 9.96046Z" fill="#245BAA"/>
<path d="M13.4829 9.0862C13.1592 9.0862 12.8967 8.82375 12.8967 8.5C12.894 6.07299 10.9272 4.10619 8.50015 4.10344C8.17639 4.10344 7.91394 3.84099 7.91394 3.51724C7.91394 3.19348 8.17639 2.93103 8.50015 2.93103C11.5744 2.93442 14.0657 5.42575 14.0691 8.5C14.0691 8.82375 13.8067 9.0862 13.4829 9.0862Z" fill="#245BAA"/>
<path d="M16.4139 9.08621C16.0902 9.08621 15.8277 8.82375 15.8277 8.5C15.8232 4.45496 12.5452 1.17694 8.50015 1.17241C8.17639 1.17241 7.91394 0.90996 7.91394 0.586207C7.91394 0.262454 8.17639 0 8.50015 0C13.1924 0.00516913 16.995 3.80772 17.0001 8.5C17.0001 8.65547 16.9384 8.80457 16.8285 8.91451C16.7185 9.02445 16.5694 9.08621 16.4139 9.08621Z" fill="#245BAA"/>
</g>
<defs>
<clipPath id="clip0_38_419">
<rect width="17" height="17" fill="white"/>
</clipPath>
</defs>
</svg>
