<svg width="25" height="25" viewBox="0 0 25 25" fill="none" xmlns="http://www.w3.org/2000/svg">
<g clip-path="url(#clip0_163_196)">
<path d="M24.9604 12.6932C25.0409 12.4984 24.9961 12.2743 24.8469 12.1255L15.4719 2.75046C15.265 2.5506 14.9353 2.55637 14.7354 2.76325C14.5405 2.96511 14.5405 3.28508 14.7354 3.48688L23.2219 11.9734H0.52085C0.233203 11.9734 0 12.2066 0 12.4943C0 12.7819 0.233203 13.0151 0.52085 13.0151H23.2219L14.7365 21.5005C14.5296 21.7004 14.5238 22.03 14.7237 22.237C14.9235 22.4439 15.2532 22.4496 15.4602 22.2498C15.4645 22.2456 15.4687 22.2413 15.4729 22.237L24.8479 12.862C24.8961 12.8136 24.9343 12.7563 24.9604 12.6932Z" fill="#2196F3"/>
<path d="M15.1042 22.3899C14.8165 22.3905 14.5829 22.1577 14.5824 21.87C14.5822 21.7313 14.6372 21.5983 14.7354 21.5003L23.7427 12.4941L14.7354 3.48789C14.5356 3.28101 14.5413 2.95127 14.7482 2.75142C14.9501 2.55649 15.27 2.55649 15.4719 2.75142L24.8469 12.1264C25.0502 12.3298 25.0502 12.6595 24.8469 12.8629L15.4719 22.2379C15.3743 22.3353 15.2421 22.3899 15.1042 22.3899Z" fill="white"/>
<path d="M24.4792 13.015H0.52085C0.233203 13.015 0 12.7819 0 12.4942C0 12.2066 0.233203 11.9734 0.52085 11.9734H24.4792C24.7668 11.9734 25 12.2066 25 12.4942C25 12.7819 24.7668 13.015 24.4792 13.015Z" fill="white"/>
</g>
<defs>
<clipPath id="clip0_163_196">
<rect width="25" height="25" fill="white"/>
</clipPath>
</defs>
</svg>
